<?xml version="1.0" encoding="iso-8859-1"?>
<!-- Generator: Adobe Illustrator 16.0.0, SVG Export Plug-In . SVG Version: 6.00 Build 0)  -->
<!DOCTYPE svg PUBLIC "-//W3C//DTD SVG 1.1//EN" "http://www.w3.org/Graphics/SVG/1.1/DTD/svg11.dtd">
<svg version="1.1" id="Capa_1" xmlns="http://www.w3.org/2000/svg" xmlns:xlink="http://www.w3.org/1999/xlink" x="0px" y="0px"
	 width="530.451px" height="530.451px" viewBox="0 0 530.451 530.451" style="enable-background:new 0 0 530.451 530.451;"
	 xml:space="preserve">
<g>
	<g>
		<circle cx="174.856" cy="62.414" r="46.368"/>
		<path d="M92.064,530.451h346.957c13.168,0,23.764-10.586,23.764-23.744l-0.44-475.954c-0.01-13.062-10.337-26.058-23.046-29.032
			l-4.733-1.1c-12.718-2.964-25.331,4.953-28.151,17.709l-18.915,85.164c-1.032,4.667-3.328,9.553-6.388,14.133
			c-0.842-1.061-1.912-1.951-3.309-2.352l-32.302-9.362l2.285-7.65c1.052-3.577-0.985-7.363-4.571-8.425
			c-3.548-1.052-7.372,0.976-8.453,4.562l-13.865,46.607c-1.53-0.277-3.041-0.65-4.695-0.507l-82.955,7.086l-36.835-22.481
			l0.029-0.229l-0.612-0.105l-0.019-0.039l-0.048,0.02l-60.712-10.825c-7.411-1.33-14.373,3.614-15.559,11.006l-28.219,151.47
			l0.593-0.02c-1.023,4.284-1.023,8.798,0.402,13.053l30.82,91.953l-4.188,104.126c-0.086,2.085,0.191,4.083,0.622,6.024
			l-29.615,7.21c-12.689,3.099-22.644,11.446-22.224,18.647C68.082,524.608,79.002,530.451,92.064,530.451z M341.607,118.919
			l30.725,8.903c-3.701,3.404-7.727,6.225-11.771,7.937l-5.106,2.151c-7.344,3.089-15.146,9.553-21.133,16.897
			c-0.307-1.941-0.86-3.787-1.77-5.46L341.607,118.919z M189.956,161.396l32.646,18.8c2.104,1.004,4.332,1.549,6.626,1.645
			c0.698,0.038,1.416,0.029,2.123-0.057l79.369-6.771l-1.473,4.944c-1.062,3.596,0.976,7.373,4.581,8.444
			c0.545,0.182,1.09,0.249,1.654,0.277c1.319,0.048,2.562-0.344,3.662-0.985l-7.918,22.147l-13.187-7.287l3.806-12.747
			c1.062-3.595-0.956-7.382-4.562-8.443c-3.557-1.081-7.372,0.985-8.443,4.552l-8.1,27.119l-77.839-27.722l-14.42-15.874
			L189.956,161.396z M169.492,370.441l-22.089-66.02l56.218-2.113l-22.5,59.345c-2.247,5.929-2.065,12.394,0.545,18.169
			c2.601,5.775,7.315,10.203,13.253,12.44c2.391,0.909,4.896,1.425,7.43,1.521c10.241,0.421,19.565-5.728,23.179-15.3l35.143-92.813
			c2.84-7.468,1.769-15.788-2.888-22.28c-4.657-6.436-11.618-10.223-20.187-9.869l-64.527,2.419l7.898-44.389
			c1.817,1.912,4.064,3.414,6.588,4.312l83.5,29.72l-7.737,25.905c-1.081,3.586,0.957,7.372,4.542,8.424
			c0.584,0.173,1.119,0.259,1.684,0.287c3.012,0.115,5.852-1.816,6.761-4.849l8.166-27.31c6.082-0.927,11.303-4.906,13.454-10.892
			c1.502-4.265,1.272-8.874-0.659-12.967c-1.004-2.094-2.372-3.901-4.093-5.384l0.88-2.936l12.526,6.942l-8.271,23.141
			c-4.389,12.307-3.662,31.948,1.626,43.892l-1.74,49.419c5.288,11.944,6.98,29.587,3.786,39.398
			c-3.193,9.83-15.931,20.855-28.438,24.633l-26.451,15.128c-12.508,3.776-23.896,16.256-25.427,27.874
			c-1.54,11.619-13.072,23.543-25.761,26.642l-29.271,7.124l4.064-101.133C170.831,376.055,170.438,373.186,169.492,370.441z"/>
	</g>
</g>
<g>
</g>
<g>
</g>
<g>
</g>
<g>
</g>
<g>
</g>
<g>
</g>
<g>
</g>
<g>
</g>
<g>
</g>
<g>
</g>
<g>
</g>
<g>
</g>
<g>
</g>
<g>
</g>
<g>
</g>
</svg>
